<svg width="69" height="69" viewBox="0 0 69 69" fill="none" xmlns="http://www.w3.org/2000/svg">
<circle cx="13.4967" cy="61.0343" r="1.13729" fill="#57869A" fill-opacity="0.2"/>
<circle cx="55.1969" cy="7.96102" r="1.13729" fill="#57869A" fill-opacity="0.2"/>
<circle cx="34.3466" cy="34.8769" r="33.6186" stroke="#57869A" stroke-opacity="0.2"/>
<path d="M33.5 52.625C31.2736 52.625 29.1797 52.201 27.2184 51.3529C25.2571 50.5037 23.5509 49.3534 22.0996 47.9022C20.6472 46.4497 19.4969 44.7429 18.6489 42.7816C17.7996 40.8203 17.375 38.7264 17.375 36.5C17.375 34.2736 17.799 32.1797 18.6471 30.2184C19.4951 28.2571 20.646 26.5509 22.0996 25.0996C23.5533 23.6484 25.2595 22.4975 27.2184 21.6471C29.1809 20.799 31.2747 20.375 33.5 20.375C37.6758 20.375 41.2782 21.7528 44.3073 24.5084C47.3364 27.264 49.0702 30.6675 49.5085 34.7191H47.6954C47.3812 32.1259 46.4448 29.7986 44.886 27.737C43.3273 25.6753 41.3236 24.1542 38.875 23.1736V23.9583C38.875 24.9437 38.5244 25.7876 37.8233 26.49C37.1222 27.1923 36.2783 27.5429 35.2917 27.5417H31.7083V31.125C31.7083 31.6326 31.5363 32.0585 31.1923 32.4025C30.8483 32.7465 30.4231 32.9179 29.9167 32.9167H26.3333V36.5H29.6407V41.875H28.125L19.525 33.275C19.4354 33.8125 19.3536 34.35 19.2795 34.8875C19.2055 35.425 19.1679 35.9625 19.1667 36.5C19.1667 40.4118 20.5403 43.7712 23.2875 46.5781C26.0347 49.3851 29.4389 50.8035 33.5 50.8333V52.625ZM49.6662 52.1412L43.485 46.0317C42.9498 46.4127 42.3699 46.7113 41.7452 46.9275C41.1206 47.1425 40.4624 47.25 39.7708 47.25C38.0138 47.25 36.5297 46.6444 35.3185 45.4333C34.1062 44.2197 33.5 42.735 33.5 40.9792C33.5 39.2233 34.1062 37.7392 35.3185 36.5269C36.5309 35.3145 38.015 34.7083 39.7708 34.7083C41.5267 34.7083 43.0114 35.3145 44.2249 36.5269C45.4385 37.7392 46.0441 39.2233 46.0417 40.9792C46.0417 41.6934 45.9282 42.3683 45.7012 43.0037C45.4743 43.6404 45.1578 44.2263 44.7517 44.7614L50.9329 50.8745L49.6662 52.1412ZM39.7708 45.4583C41.025 45.4583 42.0851 45.0253 42.951 44.1594C43.817 43.2934 44.25 42.2333 44.25 40.9792C44.25 39.725 43.817 38.6649 42.951 37.799C42.0851 36.933 41.025 36.5 39.7708 36.5C38.5167 36.5 37.4566 36.933 36.5906 37.799C35.7247 38.6649 35.2917 39.725 35.2917 40.9792C35.2917 42.2333 35.7247 43.2934 36.5906 44.1594C37.4566 45.0253 38.5167 45.4583 39.7708 45.4583Z" fill="#57869A"/>
</svg>
