<svg width="70" height="69" viewBox="0 0 70 69" fill="none" xmlns="http://www.w3.org/2000/svg">
<circle cx="34.8769" cy="34.8769" r="33.6186" stroke="#57869A" stroke-opacity="0.2"/>
<circle cx="1.13729" cy="36.0142" r="1.13729" fill="#57869A" fill-opacity="0.2"/>
<circle cx="68.6163" cy="36.0142" r="1.13729" fill="#57869A" fill-opacity="0.2"/>
<path d="M34.4625 53.375C29.9562 49.36 26.6488 45.68 24.54 42.335C22.4313 38.99 21.3762 35.7588 21.375 32.6413C21.375 28.8163 22.6906 25.6912 25.3219 23.2662C27.9531 20.8387 31 19.625 34.4625 19.625C38.9362 19.625 42.2963 21.2019 44.5425 24.3556C46.7888 27.5094 47.7919 31.2137 47.5519 35.4688L51.9937 30.8469L53.2837 32.1369L46.6144 38.9881L39.9431 32.1369L41.2331 30.8469L45.6769 35.4688C45.9894 31.1975 45.0656 27.8012 42.9056 25.28C40.7469 22.76 37.9325 21.5 34.4625 21.5C31.3075 21.5 28.65 22.595 26.49 24.785C24.33 26.975 23.25 29.6337 23.25 32.7612C23.25 35.4025 24.1419 38.1681 25.9256 41.0581C27.7094 43.9481 30.5437 47.215 34.4288 50.8588L36.6319 48.695C37.4031 47.935 38.0063 47.3256 38.4412 46.8669C38.2125 46.5469 38.0275 46.2031 37.8862 45.8356C37.745 45.4681 37.6737 45.0725 37.6725 44.6488C37.6725 43.6013 38.0356 42.7144 38.7619 41.9881C39.4881 41.2619 40.3756 40.8994 41.4244 40.9006C42.4731 40.9019 43.3537 41.2644 44.0662 41.9881C44.7787 42.7119 45.1356 43.5994 45.1369 44.6506C45.1369 45.6969 44.7744 46.5775 44.0494 47.2925C43.3244 48.0075 42.4369 48.3644 41.3869 48.3631C41.1119 48.3631 40.8556 48.3412 40.6181 48.2975C40.3781 48.255 40.1369 48.1781 39.8944 48.0669C39.0844 48.9081 38.2194 49.7712 37.2994 50.6562C36.3794 51.5412 35.4344 52.4475 34.4644 53.375" fill="#57869A"/>
</svg>
