<svg width="69" height="69" viewBox="0 0 69 69" fill="none" xmlns="http://www.w3.org/2000/svg">
<circle cx="13.4967" cy="61.0338" r="1.13729" fill="#57869A" fill-opacity="0.2"/>
<circle cx="55.1978" cy="7.96053" r="1.13729" fill="#57869A" fill-opacity="0.2"/>
<circle cx="34.3471" cy="34.8764" r="33.6186" stroke="#57869A" stroke-opacity="0.2"/>
<g clip-path="url(#clip0_2280_537)" filter="url(#filter0_d_2280_537)">
<path d="M39.25 28H39.2675M20 40.25L27 33.25C28.624 31.6872 30.626 31.6872 32.25 33.25L41 42" stroke="#57869A" stroke-opacity="0.8" stroke-width="2" stroke-linecap="round" stroke-linejoin="round"/>
<path d="M37.5 38.5002L39.25 36.7502C40.874 35.1874 42.876 35.1874 44.5 36.7502L48 40.2502" stroke="#57869A" stroke-opacity="0.8" stroke-width="2" stroke-linecap="round" stroke-linejoin="round"/>
<path d="M18.25 35C18.25 39.1772 19.9094 43.1832 22.8631 46.1369C25.8168 49.0906 29.8228 50.75 34 50.75C38.1772 50.75 42.1832 49.0906 45.1369 46.1369C48.0906 43.1832 49.75 39.1772 49.75 35C49.75 30.8228 48.0906 26.8168 45.1369 23.8631C42.1832 20.9094 38.1772 19.25 34 19.25C29.8228 19.25 25.8168 20.9094 22.8631 23.8631C19.9094 26.8168 18.25 30.8228 18.25 35Z" stroke="#57869A" stroke-opacity="0.8" stroke-width="2" stroke-linecap="round" stroke-linejoin="round"/>
</g>
<defs>
<filter id="filter0_d_2280_537" x="8" y="15" width="51" height="51" filterUnits="userSpaceOnUse" color-interpolation-filters="sRGB">
<feFlood flood-opacity="0" result="BackgroundImageFix"/>
<feColorMatrix in="SourceAlpha" type="matrix" values="0 0 0 0 0 0 0 0 0 0 0 0 0 0 0 0 0 0 127 0" result="hardAlpha"/>
<feOffset dy="4"/>
<feGaussianBlur stdDeviation="2"/>
<feComposite in2="hardAlpha" operator="out"/>
<feColorMatrix type="matrix" values="0 0 0 0 0 0 0 0 0 0 0 0 0 0 0 0 0 0 0.25 0"/>
<feBlend mode="normal" in2="BackgroundImageFix" result="effect1_dropShadow_2280_537"/>
<feBlend mode="normal" in="SourceGraphic" in2="effect1_dropShadow_2280_537" result="shape"/>
</filter>
<clipPath id="clip0_2280_537">
<rect width="43" height="43" fill="white" transform="translate(12 15)"/>
</clipPath>
</defs>
</svg>
