<svg width="70" height="69" viewBox="0 0 70 69" fill="none" xmlns="http://www.w3.org/2000/svg">
<circle cx="34.8764" cy="34.8764" r="33.6186" stroke="#57869A" stroke-opacity="0.2"/>
<circle cx="1.13729" cy="36.0133" r="1.13729" fill="#57869A" fill-opacity="0.2"/>
<circle cx="68.6158" cy="36.0133" r="1.13729" fill="#57869A" fill-opacity="0.2"/>
<g clip-path="url(#clip0_2280_519)">
<path d="M39.1822 40.1597C38.9122 40.1597 38.2672 40.1597 37.2322 40.0397L37.5472 39.3197C37.8812 38.6157 38.1412 37.8857 38.3272 37.1297C38.3876 36.8518 38.3796 36.5634 38.3038 36.2893C38.228 36.0152 38.0868 35.7636 37.8922 35.5562C37.3898 35.1383 36.7728 34.8821 36.1222 34.8212C34.9372 34.6562 33.4537 34.9412 32.5837 34.8212C31.9312 34.6967 31.2637 34.6712 30.6037 34.7462C30.3487 34.8662 30.1537 35.4512 30.8587 35.6312C31.2337 35.7212 32.1637 35.8412 32.5087 35.8862C33.2287 35.9762 34.3987 35.9912 35.4187 36.1562C35.9437 36.2462 36.8137 36.6212 36.7537 36.8612C36.6037 37.4012 36.1087 38.5112 36.0187 38.7812L35.6287 39.9062H34.8487C31.6237 40.0247 31.5187 40.1747 31.2637 40.7447C31.0087 41.3147 34.6687 41.5097 34.8187 41.5247H35.0737L33.7237 45.4232C33.6924 45.5141 33.6882 45.6122 33.7116 45.7054C33.7351 45.7986 33.7852 45.883 33.8558 45.9482C33.9265 46.0135 34.0146 46.0567 34.1094 46.0727C34.2042 46.0887 34.3016 46.0767 34.3897 46.0382C34.5052 45.9848 34.5948 45.8877 34.6387 45.7682L36.4987 41.5382C37.2487 41.4882 37.9932 41.3932 38.7322 41.2532C38.9232 41.2332 39.1082 41.1882 39.2872 41.1182C39.5572 40.9682 39.6172 40.7882 39.6022 40.6382C39.6027 40.5209 39.5603 40.4075 39.4829 40.3193C39.4056 40.2312 39.2986 40.1744 39.1822 40.1597ZM40.6372 22.8407C40.4678 23.978 40.5917 25.1398 40.9972 26.2157C41.2685 26.7427 41.7231 27.1523 42.2753 27.3675C42.8275 27.5827 43.4394 27.5886 43.9957 27.3842C44.3744 27.2925 44.7239 27.1071 45.0123 26.8449C45.3006 26.5828 45.5184 26.2525 45.6457 25.8842C45.8897 25.0423 45.9812 24.1634 45.9157 23.2892V21.1022C45.9381 20.7701 45.888 20.4371 45.7688 20.1263C45.6497 19.8154 45.4644 19.5343 45.2257 19.3022C44.426 18.7598 43.4507 18.54 42.4957 18.6872C42.4314 18.6852 42.3674 18.6961 42.3074 18.7194C42.2474 18.7426 42.1927 18.7776 42.1465 18.8224C42.1004 18.8672 42.0637 18.9208 42.0386 18.98C42.0136 19.0392 42.0007 19.1029 42.0007 19.1672C41.9639 19.0747 41.8954 18.9983 41.8075 18.9516C41.7196 18.9049 41.6179 18.891 41.5207 18.9122C41.4226 18.9397 41.3329 18.9911 41.2596 19.0618C41.1863 19.1324 41.1317 19.2202 41.1007 19.3172C41.0093 19.842 40.9741 20.375 40.9957 20.9072L40.7857 21.8222C40.7077 22.1572 40.6577 22.4972 40.6357 22.8422M41.8807 22.2272C41.8807 22.2272 42.1207 19.4372 42.1207 19.3322C42.1585 19.4205 42.2212 19.4959 42.3011 19.5491C42.381 19.6024 42.4747 19.6313 42.5707 19.6322C43.9192 19.6322 44.4892 19.8872 44.6392 20.4122C44.6879 21.3666 44.6224 22.3234 44.4442 23.2622C44.4472 23.8442 44.3822 24.4192 44.2492 24.9872C44.1442 25.3472 44.0092 25.7072 43.6342 25.7972C43.4878 25.8635 43.3285 25.8963 43.1679 25.8932C43.0072 25.8902 42.8493 25.8513 42.7056 25.7794C42.5619 25.7076 42.436 25.6046 42.3372 25.4779C42.2383 25.3512 42.169 25.2041 42.1342 25.0472C41.8958 24.1275 41.8111 23.1748 41.8807 22.2272ZM29.8252 22.3757C29.8252 22.5257 29.9302 22.6757 30.5152 22.7357C31.3552 22.7357 31.7152 23.0057 32.8702 23.0657H36.6322C37.6672 23.0657 38.2972 22.9757 39.3472 22.9007C39.8422 22.9007 40.2322 21.9407 39.5722 21.7757C38.4322 21.7307 37.6522 21.5357 36.4972 21.5357H33.5002C32.5727 21.5335 31.6459 21.5886 30.7252 21.7007C30.0952 21.7457 29.8102 22.1507 29.8252 22.3757Z" fill="#57869A" fill-opacity="0.8"/>
<path d="M51.4923 23.3502C50.9861 22.753 50.3198 22.3434 49.5874 22.179C48.8936 21.981 48.1751 21.9041 47.4589 21.9513C46.394 22.114 46.679 22.911 47.234 22.911C47.7379 22.9056 48.2379 22.9489 48.7339 23.0411C49.4821 23.099 50.1831 23.4588 50.6988 24.0496C51.0468 24.8092 51.2463 25.6403 51.2838 26.4894C51.4338 27.7564 51.5538 29.3993 51.6288 31.2031C49.4239 31.2031 44.9991 31.0079 40.0373 30.9103H29.8707C24.5024 30.9591 19.8391 31.1543 18.3707 31.2194C18.3617 28.7664 18.593 26.3194 19.0606 23.9194C19.2081 23.6259 19.4242 23.3797 19.6872 23.2055C19.9503 23.0314 20.251 22.9354 20.5591 22.9273C21.1819 22.7622 21.8236 22.6964 22.464 22.7321C22.5488 22.7162 22.6267 22.6716 22.6865 22.6045C22.7463 22.5374 22.7848 22.4514 22.7965 22.359C22.8082 22.2666 22.7925 22.1725 22.7516 22.0904C22.7107 22.0083 22.6467 21.9425 22.569 21.9025C21.64 21.6822 20.6781 21.6822 19.7491 21.9025C19.3811 21.9986 19.0382 22.1849 18.747 22.4471C18.4557 22.7093 18.2239 23.0405 18.0692 23.4152C17.4842 24.9116 16.8842 33.1712 17.0192 40.4874C17.1242 45.8062 17.7092 50.5687 18.7891 52C19.5841 53.041 21.654 53.6266 24.2639 53.8543C28.3257 54.1471 33.724 53.6591 36.5124 53.6591C40.015 53.7808 43.5213 53.6558 47.009 53.285C48.5819 53.1377 50.1117 52.6511 51.5088 51.8536C51.9152 51.4792 52.1858 50.9604 52.2722 50.3897C52.8062 47.0505 53.0477 43.664 52.9922 40.2759C52.9922 32.9923 52.4372 24.5538 51.4923 23.3502ZM51.1173 48.4883C51.0331 49.202 50.8668 49.9014 50.6223 50.5703C48.9442 51.3297 47.1486 51.7376 45.3305 51.7723C41.8207 52.0814 37.9523 51.935 36.5139 51.935C33.754 51.935 28.4007 52.4392 24.3674 52.1789C22.2975 52.0488 20.5891 51.8211 19.9591 51.0078C18.9391 49.7229 18.5042 45.3491 18.3692 40.5199C18.2691 37.7408 18.2591 34.9588 18.3392 32.179C19.8391 32.179 24.4139 32.4393 29.8707 32.5531H40.0373C45.0306 32.4555 49.4689 32.3091 51.6573 32.2441C51.6573 33.8706 51.7323 35.7086 51.6573 37.4962C51.6873 41.1689 51.5073 44.84 51.1173 48.4883Z" fill="#57869A" fill-opacity="0.8"/>
<path d="M23.7218 22.7961C23.6063 23.9961 23.7233 25.2081 24.0668 26.3646C24.3379 26.8922 24.7926 27.3024 25.3452 27.5179C25.8978 27.7334 26.5102 27.7393 27.0668 27.5346C27.4489 27.4464 27.8021 27.2625 28.0934 27.0001C28.3847 26.7376 28.6044 26.4054 28.7318 26.0346C28.9868 25.1856 29.0768 24.2946 29.0018 23.4096V21.2226C29.0222 20.8907 28.9712 20.5583 28.8522 20.2478C28.7331 19.9372 28.5489 19.6559 28.3118 19.4226C27.5149 18.8735 26.5388 18.6483 25.5818 18.7926C25.4506 18.7926 25.3246 18.8448 25.2318 18.9376C25.139 19.0304 25.0868 19.1564 25.0868 19.2876C25.05 19.1951 24.9816 19.1187 24.8936 19.072C24.8057 19.0253 24.7041 19.0114 24.6068 19.0326C24.5088 19.0601 24.4191 19.1115 24.3458 19.1822C24.2724 19.2528 24.2178 19.3406 24.1868 19.4376C24.0743 19.9303 24.009 20.4326 23.9918 20.9376L23.8268 21.7326V22.1226L23.7218 22.7961ZM24.9518 22.3611C24.9518 22.3611 25.1918 19.5861 25.1918 19.4661C25.2256 19.5584 25.2869 19.638 25.3673 19.6944C25.4478 19.7507 25.5436 19.781 25.6418 19.7811C26.9918 19.7811 27.5618 20.0361 27.7118 20.5611C27.7556 21.5161 27.6851 22.4729 27.5018 23.4111C27.5018 23.9931 27.4368 24.5681 27.3068 25.1361C27.2168 25.4811 27.0818 25.8411 26.7068 25.9311C26.5605 25.9974 26.4012 26.0302 26.2405 26.0272C26.0799 26.0241 25.9219 25.9852 25.7782 25.9133C25.6345 25.8415 25.5087 25.7385 25.4098 25.6118C25.311 25.4851 25.2416 25.338 25.2068 25.1811C24.9657 24.2618 24.8795 23.3088 24.9518 22.3611Z" fill="#57869A" fill-opacity="0.8"/>
</g>
<defs>
<clipPath id="clip0_2280_519">
<rect width="36" height="36" fill="white" transform="translate(17 17)"/>
</clipPath>
</defs>
</svg>
