<svg width="69" height="69" viewBox="0 0 69 69" fill="none" xmlns="http://www.w3.org/2000/svg">
<circle cx="14.0221" cy="7.96102" r="1.13729" fill="#57869A" fill-opacity="0.2"/>
<circle cx="56.4805" cy="61.0343" r="1.13729" fill="#57869A" fill-opacity="0.2"/>
<circle cx="34.872" cy="34.8769" r="33.6186" stroke="#57869A" stroke-opacity="0.2"/>
<path d="M47.3381 20.2427C42.5734 21.3774 36.3938 25.5371 36.6877 30.9286L36.6467 30.9491C35.8059 28.6591 34.6232 27.6405 32.3947 26.6288C29.4553 25.3532 26.2629 26.6288 21.6616 24.0756C24.7248 27.9071 24.7248 33.0204 29.1955 34.2987C32.2375 35.3104 35.4367 34.7157 36.6945 33.786C38.1506 38.7626 37.9387 43.6913 35.6965 48.6542C35.6076 46.2616 34.9309 43.3358 33.9943 41.2577C33.6115 43.8144 33.8645 47.6425 31.3078 50.1991C31.4377 48.9208 30.4123 46.371 29.3938 45.0927C29.3938 47.6425 29.6467 50.1991 27.9855 52.7558H44.467C44.8225 51.5595 44.9592 50.3632 45.0822 50.2128C44.5695 50.5341 44.0773 50.9716 43.1613 51.1425C43.4143 51.1425 43.3186 48.9208 43.1887 47.6425C42.1701 50.1991 40.6389 51.4774 38.9777 51.4774C40.7619 48.9208 40.509 47.6425 40.2561 45.0927C39.3674 47.3075 38.5744 48.5653 36.6193 49.6933C39.1965 44.3065 39.4836 38.8651 37.9387 33.4784C39.6545 34.2577 41.5891 33.9706 43.7629 31.7421C46.2922 29.1513 44.4055 24.0756 47.3381 20.2427ZM45.0822 50.2128C45.0959 50.2128 45.1027 50.206 45.1096 50.1991C45.1027 50.1991 45.0959 50.206 45.0822 50.2128Z" fill="#57869A"/>
</svg>
