<svg width="13" height="17" viewBox="0 0 13 17" fill="none" xmlns="http://www.w3.org/2000/svg">
<path d="M12.0418 6.12516C12.0418 5.39742 11.8985 4.6768 11.62 4.00446C11.3415 3.33211 10.9333 2.7212 10.4187 2.20661C9.90412 1.69202 9.29321 1.28383 8.62087 1.00533C7.94852 0.726835 7.2279 0.583496 6.50016 0.583496C5.77242 0.583496 5.0518 0.726835 4.37946 1.00533C3.70711 1.28383 3.0962 1.69202 2.58161 2.20661C2.06702 2.7212 1.65882 3.33211 1.38033 4.00446C1.10184 4.6768 0.958496 5.39742 0.958496 6.12516C0.958496 7.2232 1.28229 8.24445 1.83329 9.10579H1.82695L6.50016 16.4168L11.1734 9.10579H11.1678C11.7386 8.21643 12.0419 7.1819 12.0418 6.12516ZM6.50016 8.50016C5.87027 8.50016 5.26618 8.24994 4.82078 7.80454C4.37538 7.35914 4.12516 6.75505 4.12516 6.12516C4.12516 5.49527 4.37538 4.89118 4.82078 4.44578C5.26618 4.00039 5.87027 3.75016 6.50016 3.75016C7.13005 3.75016 7.73414 4.00039 8.17954 4.44578C8.62494 4.89118 8.87516 5.49527 8.87516 6.12516C8.87516 6.75505 8.62494 7.35914 8.17954 7.80454C7.73414 8.24994 7.13005 8.50016 6.50016 8.50016Z" fill="#D6E5ED"/>
</svg>
